Coordinates
version=1
nRows=29
nColumns=24
inDegrees=yes

Units are S.I. units (second, meters, Newtons, ...)
Angles are in degrees.

endheader
time	pelvis_tilt	pelvis_list	pelvis_rotation	pelvis_tx	pelvis_ty	pelvis_tz	hip_flexion_r	hip_adduction_r	hip_rotation_r	knee_angle_r	ankle_angle_r	subtalar_angle_r	mtp_angle_r	hip_flexion_l	hip_adduction_l	hip_rotation_l	knee_angle_l	ankle_angle_l	subtalar_angle_l	mtp_angle_l	lumbar_extension	lumbar_bending	lumbar_rotation
      1.23216667	      1.60288858	      4.87243225	      0.84665302	      0.18939204	      1.01535163	      0.25267176	     10.87208327	     -8.73629110	     -8.24162816	    -66.17808779	     -8.22525666	    -15.96157030	     -2.74958786	      5.72655017	     10.20556673	     10.45345158	    -14.33612450	      6.22301446	    -14.56298358	     -6.18327872	    -15.39427877	      2.25748513	     -4.08870892
      1.23633333	      1.58285661	      4.67395449	      0.64989446	      0.19442495	      1.01621006	      0.25267164	     11.46011662	     -8.46488684	     -8.08870777	    -65.85378036	     -7.32240085	    -15.93521926	     -2.78744157	      5.23533191	      9.96010061	     10.37124939	    -13.91041244	      6.25427965	    -14.60150376	     -6.21609213	    -15.37525906	      2.55412259	     -4.16752804
      1.24050000	      1.59314533	      4.48292064	      0.45675243	      0.19948057	      1.01711519	      0.25270405	     11.98694830	     -8.19036922	     -7.93742009	    -65.44193448	     -6.40995283	    -15.83675608	     -2.84168962	      4.69249447	      9.71979708	     10.30286813	    -13.44800340	      6.27803013	    -14.63609652	     -6.26265963	    -15.37189054	      2.80910196	     -4.26864062
      1.24466667	      1.56716541	      4.26779292	      0.27443632	      0.20450344	      1.01794167	      0.25274062	     12.53628493	     -7.87274378	     -7.78825527	    -64.95889943	     -5.55507195	    -15.88444147	     -2.85904319	      4.20950410	      9.45609615	     10.20410750	    -13.02822703	      6.30020475	    -14.66290318	     -6.28735891	    -15.34755113	      3.10224556	     -4.32412057
      1.24883333	      1.56044960	      4.05832919	      0.08890876	      0.20955618	      1.01877365	      0.25275195	     13.04362642	     -7.56580193	     -7.63874786	    -64.40922392	     -4.68354007	    -15.71434498	     -2.90529184	      3.67844165	      9.20227988	     10.13865159	    -12.55556147	      6.32683611	    -14.68143815	     -6.33615419	    -15.33454638	      3.41816492	     -4.42725833
      1.25300000	      1.54006596	      3.83772969	     -0.08313604	      0.21458060	      1.01956943	      0.25280174	     13.54224056	     -7.22595447	     -7.49236671	    -63.78276444	     -3.84206484	    -15.73068704	     -2.92715922	      3.18376241	      8.93464120	     10.03506731	    -12.12614861	      6.33668241	    -14.69946135	     -6.36776599	    -15.31848017	      3.71383548	     -4.49214247
      1.25716667	      1.54968293	      3.62451303	     -0.25375265	      0.21963777	      1.02037279	      0.25283190	     13.98373043	     -6.89834222	     -7.34971129	    -63.08808261	     -3.01153045	    -15.57289261	     -2.97504642	      2.63296726	      8.67760336	      9.95978116	    -11.65197319	      6.35771571	    -14.71463566	     -6.42319561	    -15.31558549	      3.99900400	     -4.59686542
      1.26133333	      1.54003895	      3.41025824	     -0.41765738	      0.22466096	      1.02111784	      0.25287913	     14.43067029	     -6.55770652	     -7.20283195	    -62.33416927	     -2.20480953	    -15.49206448	     -3.02552876	      2.11440576	      8.42043943	      9.86956457	    -11.19792329	      6.36470809	    -14.72978407	     -6.48255382	    -15.30971986	      4.30187940	     -4.68418458
      1.26550000	      1.48387800	      3.19416498	     -0.57239438	      0.22967754	      1.02175115	      0.25292089	     14.91226305	     -6.20575555	     -7.05339995	    -61.52810302	     -1.43449314	    -15.49620875	     -3.04657438	      1.65748517	      8.16349053	      9.76839421	    -10.76967827	      6.37760079	    -14.72791662	     -6.51624749	    -15.26690003	      4.61571631	     -4.73524464
      1.26966667	      1.46829814	      2.96851294	     -0.72442080	      0.23471573	      1.02243053	      0.25298708	     15.31491695	     -5.83747513	     -6.90233800	    -60.63330693	     -0.69398247	    -15.37432256	     -3.08455858	      1.15046996	      7.89549025	      9.66099916	    -10.33222340	      6.39323098	    -14.72481409	     -6.56787621	    -15.23956824	      4.90212211	     -4.82807920
      1.27383333	      1.48785005	      2.76830244	     -0.86747500	      0.23974401	      1.02309712	      0.25302057	     15.66692817	     -5.50524977	     -6.76382145	    -59.70183462	      0.04289257	    -15.26676616	     -3.18008237	      0.59219663	      7.65845833	      9.58605734	     -9.86522187	      6.41065292	    -14.70703724	     -6.67482789	    -15.27783770	      5.19343832	     -4.95443467
      1.27800000	      1.42083671	      2.54406784	     -1.00922390	      0.24477303	      1.02362042	      0.25309117	     16.09099583	     -5.12564685	     -6.60355351	    -58.69985983	      0.68927798	    -15.21750079	     -3.21198955	      0.15326043	      7.39479300	      9.45779697	     -9.45444849	      6.42464692	    -14.70159408	     -6.72071276	    -15.19950156	      5.48985600	     -5.00204828
      1.28216667	      1.38435992	      2.33191778	     -1.14498333	      0.24979818	      1.02412187	      0.25315337	     16.46318504	     -4.76205577	     -6.44768350	    -57.64997618	      1.31426512	    -15.13645154	     -3.25063455	     -0.32287161	      7.14577289	      9.33941992	     -9.03526479	      6.45115784	    -14.67334179	     -6.77393599	    -15.16332055	      5.78151136	     -5.07958780
      1.28633333	      1.34142976	      2.12600394	     -1.27235235	      0.25482306	      1.02457712	      0.25320506	     16.82236401	     -4.40421525	     -6.29179934	    -56.54769857	      1.89827868	    -15.06532023	     -3.28481796	     -0.78916612	      6.90546916	      9.22394565	     -8.62289152	      6.47748218	    -14.63895024	     -6.82308841	    -15.12394295	      6.06878554	     -5.15635553
      1.29050000	      1.31613519	      1.93242506	     -1.39677710	      0.25985070	      1.02500095	      0.25326677	     17.14374769	     -4.05857869	     -6.13191097	    -55.39634775	      2.43822404	    -14.98465293	     -3.32186174	     -1.27467750	      6.67948701	      9.10300551	     -8.21076748	      6.50462273	    -14.59874427	     -6.87588336	    -15.10326863	      6.33886981	     -5.24625683
      1.29466667	      1.31548340	      1.75469049	     -1.51211626	      0.26488113	      1.02540102	      0.25331725	     17.42059462	     -3.73447632	     -5.97728930	    -54.20148907	      2.91713321	    -14.91551780	     -3.40830889	     -1.79576736	      6.47183730	      9.00563419	     -7.78097785	      6.55302585	    -14.52589107	     -6.98362945	    -15.12311736	      6.59732580	     -5.38490379
      1.29883333	      1.28385312	      1.57998894	     -1.62327738	      0.26992419	      1.02571226	      0.25336260	     17.71162078	     -3.41271199	     -5.82098494	    -52.95737245	      3.34050434	    -14.84569091	     -3.47759696	     -2.26984525	      6.26979465	      8.87878350	     -7.38110019	      6.59188860	    -14.48231531	     -7.07493278	    -15.08115516	      6.85122336	     -5.47446550
      1.30300000	      1.25569412	      1.40765215	     -1.72492652	      0.27495699	      1.02598121	      0.25340841	     17.97820842	     -3.09159305	     -5.66138416	    -51.66529014	      3.72369198	    -14.79373012	     -3.54390804	     -2.74356965	      6.07126001	      8.76277881	     -6.99006842	      6.62914734	    -14.42747682	     -7.16500438	    -15.05905690	      7.09727479	     -5.57432379
      1.30716667	      1.19276661	      1.25816760	     -1.81928437	      0.27997785	      1.02613961	      0.25344662	     18.26976316	     -2.79324519	     -5.48928134	    -50.34229446	      4.09447211	    -14.72817745	     -3.57953969	     -3.16138654	      5.90023702	      8.64236498	     -6.63755364	      6.64845685	    -14.38563726	     -7.22006657	    -14.99255774	      7.31199879	     -5.64990027
      1.31133333	      1.19482870	      1.11296868	     -1.90930781	      0.28502387	      1.02632955	      0.25348522	     18.46876640	     -2.51049307	     -5.33866906	    -48.97112502	      4.35866659	    -14.69717931	     -3.64360996	     -3.67427410	      5.73326315	      8.53672020	     -6.23347078	      6.70462594	    -14.31044862	     -7.31136795	    -15.00773100	      7.53268261	     -5.79065646
      1.31550000	      1.13280434	      0.99060590	     -1.99143039	      0.29005615	      1.02637809	      0.25350772	     18.72503664	     -2.24895417	     -5.16932492	    -47.57343419	      4.64840186	    -14.62122283	     -3.67560468	     -4.09030812	      5.59460852	      8.42580347	     -5.88734623	      6.72473043	    -14.26691851	     -7.36430790	    -14.93507393	      7.72731200	     -5.87086499
      1.31966667	      1.11901656	      0.87029163	     -2.06483549	      0.29510825	      1.02645238	      0.25353933	     18.90215942	     -1.99702869	     -5.01968404	    -46.12001678	      4.82048025	    -14.59885820	     -3.72712863	     -4.57315418	      5.45733373	      8.32519282	     -5.51175332	      6.77124642	    -14.20382982	     -7.44347315	    -14.91800343	      7.91522685	     -6.01615254
      1.32383333	      1.09489641	      0.76896815	     -2.13367393	      0.30014150	      1.02644142	      0.25356872	     19.08140218	     -1.76889649	     -4.86816553	    -44.64754536	      4.99155663	    -14.55756654	     -3.78238035	     -5.03930810	      5.34117259	      8.23218852	     -5.14384167	      6.80474406	    -14.14242803	     -7.53364536	    -14.91322262	      8.07486437	     -6.15874796
      1.32800000	      1.06612859	      0.67993942	     -2.19612913	      0.30518770	      1.02639007	      0.25359165	     19.24210704	     -1.55611541	     -4.71416762	    -43.12977045	      5.12627453	    -14.51454829	     -3.83533828	     -5.49536967	      5.24016082	      8.14433747	     -4.78899109	      6.82974010	    -14.08615362	     -7.62442368	    -14.88309007	      8.23130901	     -6.28960946
      1.33216667	      1.03410580	      0.59383359	     -2.24877435	      0.31023690	      1.02629334	      0.25360430	     19.38303678	     -1.35229973	     -4.57108235	    -41.56889180	      5.22081609	    -14.46951939	     -3.88555770	     -5.94361396	      5.14295956	      8.05985913	     -4.44319441	      6.85580091	    -14.03128993	     -7.71477920	    -14.85105409	      8.37978493	     -6.42564396
      1.33633333	      0.99721208	      0.52438377	     -2.29907985	      0.31528684	      1.02612280	      0.25361788	     19.51542189	     -1.17048549	     -4.43156965	    -39.98472410	      5.29063164	    -14.40909481	     -3.93205925	     -6.38383408	      5.06501723	      7.97680990	     -4.10314785	      6.88181502	    -13.97866632	     -7.80264410	    -14.81263055	      8.51335860	     -6.56346361
      1.34050000	      0.96804590	      0.47277401	     -2.34508298	      0.32034045	      1.02592528	      0.25362630	     19.61906695	     -1.01410728	     -4.29607221	    -38.36426589	      5.33012919	    -14.33873334	     -3.97354806	     -6.82810249	      5.00739519	      7.89477692	     -3.77027166	      6.90022248	    -13.92641341	     -7.88724943	    -14.78184230	      8.62631911	     -6.70643067
      1.34466667	      0.93569609	      0.42202838	     -2.38561184	      0.32540881	      1.02568488	      0.25364743	     19.70064728	     -0.86004656	     -4.16743189	    -36.70182863	      5.33523227	    -14.26527986	     -4.01220910	     -7.26933113	      4.94998541	      7.81633237	     -3.43967517	      6.91993239	    -13.86922162	     -7.97161856	    -14.74706913	      8.73205756	     -6.84881662
      1.34883333	      0.88864389	      0.38476367	     -2.42100399	      0.33048415	      1.02537088	      0.25366100	     19.77983320	     -0.72704869	     -4.04954732	    -35.01072316	      5.31208302	    -14.18878829	     -4.04877483	     -7.68816714	      4.90720302	      7.73468932	     -3.12232566	      6.94405143	    -13.81421153	     -8.05938302	    -14.69303018	      8.82011240	     -6.99533658
